<svg version="1.1" id="Layer_1" xmlns="http://www.w3.org/2000/svg" xmlns:xlink="http://www.w3.org/1999/xlink" x="0px" y="0px"
	 width="100%" viewBox="0 0 96 96" enable-background="new 0 0 96 96" xml:space="preserve">
<path fill="#000000" opacity="0.000000" stroke="none" 
	d="
M97.000000,50.000000 
	C97.000000,65.628922 97.000000,81.257851 97.000000,96.943390 
	C65.114914,96.943390 33.229710,96.943390 1.000000,96.943390 
	C1.000000,84.314514 1.000000,71.625916 1.367706,58.362312 
	C2.159196,58.436638 2.715754,59.035172 2.986595,59.743019 
	C6.360044,68.559654 11.038264,76.432014 19.058769,82.338058 
	C33.613796,95.685555 50.466637,97.822823 68.499748,93.070831 
	C80.388184,89.938065 88.932091,82.329437 94.331406,70.946152 
	C94.622421,70.401093 94.667000,69.978828 94.711586,69.556564 
	C94.247780,69.808914 93.783974,70.061272 93.068588,70.534210 
	C82.336006,80.534981 70.243217,84.267113 55.825714,82.284439 
	C45.643181,80.884148 37.236076,76.406319 28.903671,70.590981 
	C27.836046,69.340179 26.931173,68.366600 25.979660,67.440964 
	C11.778135,53.625668 6.050416,37.630566 13.301598,18.282393 
	C13.507270,17.733603 13.630117,17.153774 13.791584,16.588419 
	C10.070443,20.015564 7.320569,24.039993 4.468648,27.990759 
	C3.438332,29.418055 2.163340,30.668730 1.000000,32.000000 
	C1.000000,21.693169 1.000000,11.386337 1.000000,1.039753 
	C32.891384,1.039753 64.782829,1.039753 97.000000,1.039753 
	C97.000000,15.352585 97.000000,29.707634 96.682213,44.640862 
	C95.075340,46.498783 93.844467,47.844208 92.487282,49.047119 
	C85.949631,54.841637 78.506424,57.059731 69.643234,56.219070 
	C61.757164,55.471088 55.448917,51.771923 48.892784,47.586464 
	C37.195721,36.144444 30.822870,23.642378 38.591717,7.371344 
	C29.675154,16.168808 26.071405,26.251123 29.708851,38.337719 
	C32.033360,46.061665 35.464485,53.027664 43.096764,57.446152 
	C48.585903,62.057777 54.554749,64.515755 61.462543,65.304253 
	C73.957268,66.730499 84.642761,63.941677 92.801094,53.789619 
	C93.967102,52.338661 95.589066,51.254124 97.000000,50.000000 
M62.656311,35.196201 
	C73.681404,43.716904 90.227409,39.796585 94.459763,27.603456 
	C89.736679,31.711920 84.952469,34.402626 79.102577,32.960869 
	C74.710655,31.878439 70.442245,30.294859 65.804832,28.336922 
	C58.402988,21.509220 54.634666,13.527521 58.833385,2.357242 
	C48.503490,12.630153 50.303516,26.259855 62.656311,35.196201 
z"/>
<path fill="#105A94" opacity="1.000000" stroke="none" 
	d="
M1.000000,32.468651 
	C2.163340,30.668730 3.438332,29.418055 4.468648,27.990759 
	C7.320569,24.039993 10.070443,20.015564 13.791584,16.588419 
	C13.630117,17.153774 13.507270,17.733603 13.301598,18.282393 
	C6.050416,37.630566 11.778135,53.625668 25.979660,67.440964 
	C26.931173,68.366600 27.836046,69.340179 28.713303,70.873581 
	C25.412148,74.980919 22.160299,78.506142 18.908451,82.031357 
	C11.038264,76.432014 6.360044,68.559654 2.986595,59.743019 
	C2.715754,59.035172 2.159196,58.436638 1.367706,57.893654 
	C1.000000,49.645767 1.000000,41.291534 1.000000,32.468651 
z"/>
<path fill="#1266A9" opacity="1.000000" stroke="none" 
	d="
M97.000000,49.583336 
	C95.589066,51.254124 93.967102,52.338661 92.801094,53.789619 
	C84.642761,63.941677 73.957268,66.730499 61.462543,65.304253 
	C54.554749,64.515755 48.585903,62.057777 43.211594,57.109146 
	C45.116440,53.612564 47.075809,50.748657 49.035179,47.884750 
	C55.448917,51.771923 61.757164,55.471088 69.643234,56.219070 
	C78.506424,57.059731 85.949631,54.841637 92.487282,49.047119 
	C93.844467,47.844208 95.075340,46.498783 96.682213,45.109520 
	C97.000000,46.388889 97.000000,47.777779 97.000000,49.583336 
z"/>
<path fill="#1266A9" opacity="1.000000" stroke="none" 
	d="
M19.058769,82.338058 
	C22.160299,78.506142 25.412148,74.980919 28.854362,71.173103 
	C37.236076,76.406319 45.643181,80.884148 55.825714,82.284439 
	C70.243217,84.267113 82.336006,80.534981 93.259689,70.723152 
	C93.829903,70.817322 93.957436,70.943130 94.084976,71.068947 
	C88.932091,82.329437 80.388184,89.938065 68.499748,93.070831 
	C50.466637,97.822823 33.613796,95.685555 19.058769,82.338058 
z"/>
<path fill="#105A95" opacity="1.000000" stroke="none" 
	d="
M48.892780,47.586464 
	C47.075809,50.748657 45.116440,53.612564 43.042244,56.813477 
	C35.464485,53.027664 32.033360,46.061665 29.708851,38.337719 
	C26.071405,26.251123 29.675154,16.168808 38.591717,7.371344 
	C30.822870,23.642378 37.195721,36.144444 48.892780,47.586464 
z"/>
<path fill="#1166A9" opacity="1.000000" stroke="none" 
	d="
M66.118843,28.934389 
	C70.442245,30.294859 74.710655,31.878439 79.102577,32.960869 
	C84.952469,34.402626 89.736679,31.711920 94.459763,27.603456 
	C90.227409,39.796585 73.681404,43.716904 62.451286,34.713181 
	C63.537125,32.464901 64.827980,30.699644 66.118843,28.934389 
z"/>
<path fill="#105A95" opacity="1.000000" stroke="none" 
	d="
M65.961838,28.635654 
	C64.827980,30.699644 63.537125,32.464901 62.135559,34.541924 
	C50.303516,26.259855 48.503490,12.630153 58.833385,2.357242 
	C54.634666,13.527521 58.402988,21.509220 65.961838,28.635654 
z"/>
<path fill="#1266A9" opacity="1.000000" stroke="none" 
	d="
M93.511269,70.502563 
	C93.783974,70.061272 94.247780,69.808914 94.711586,69.556564 
	C94.667000,69.978828 94.622421,70.401093 94.331406,70.946152 
	C93.957436,70.943130 93.829903,70.817322 93.511269,70.502563 
z"/>
</svg>