<svg version="1.1" id="Layer_1" xmlns="http://www.w3.org/2000/svg" xmlns:xlink="http://www.w3.org/1999/xlink" x="0px" y="0px"
	 width="100%" viewBox="0 0 96 96" enable-background="new 0 0 96 96" xml:space="preserve">
<path fill="#000000" opacity="0.000000" stroke="none" 
	d="
M48.000000,97.000000 
	C32.351387,97.000000 16.702774,97.000000 1.027080,97.000000 
	C1.027080,65.054947 1.027080,33.109867 1.027080,1.082392 
	C32.908009,1.082392 64.816299,1.082392 96.862297,1.082392 
	C96.862297,32.999626 96.862297,64.999718 96.862297,97.000000 
	C82.236847,97.000000 67.587082,97.000000 52.236877,96.590118 
	C52.027229,92.156891 52.518024,88.133530 53.362907,84.065147 
	C54.289303,83.729912 54.971367,83.555649 55.418045,83.132759 
	C71.819199,67.605064 75.737488,46.753811 65.487938,26.394516 
	C61.571205,18.614479 55.253788,12.043032 49.985794,4.688218 
	C49.941193,4.455621 49.811619,4.000020 49.825157,3.756113 
	C49.668884,3.166294 49.395931,3.035217 48.660995,3.062127 
	C45.192127,6.176791 41.657047,9.034688 39.045570,12.574054 
	C27.681707,27.975641 23.415977,44.865719 30.020895,63.428360 
	C33.192287,72.341331 38.507965,79.884285 46.820271,85.465355 
	C47.283817,89.586655 47.641907,93.293327 48.000000,97.000000 
z"/>
<path fill="#A5A787" opacity="1.000000" stroke="none" 
	d="
M48.399994,97.000000 
	C47.641907,93.293327 47.283817,89.586655 46.984665,85.115891 
	C47.713543,82.186554 48.383484,80.021309 49.297615,78.102539 
	C50.697483,80.269409 51.853149,82.189789 53.008820,84.110176 
	C52.518024,88.133530 52.027229,92.156891 51.768219,96.590118 
	C50.933331,97.000000 49.866661,97.000000 48.399994,97.000000 
z"/>
<path fill="#59AA51" opacity="1.000000" stroke="none" 
	d="
M49.053421,77.856056 
	C48.383484,80.021309 47.713543,82.186554 46.879211,84.701263 
	C38.507965,79.884285 33.192287,72.341331 30.020895,63.428360 
	C23.415977,44.865719 27.681707,27.975641 39.045570,12.574054 
	C41.657047,9.034688 45.192127,6.176791 48.777672,3.222044 
	C49.419273,3.645832 49.605419,3.832902 49.811619,4.000020 
	C49.811619,4.000020 49.941193,4.455621 49.977325,5.146564 
	C49.982666,8.286785 49.951874,10.736062 49.714039,13.521451 
	C49.336937,21.604578 49.040154,29.351755 49.049995,37.098541 
	C49.054958,41.005367 49.615673,44.911488 49.938843,49.297821 
	C49.652870,59.137165 49.353149,68.496613 49.053421,77.856056 
z"/>
<path fill="#4A9D4B" opacity="1.000000" stroke="none" 
	d="
M49.297619,78.102539 
	C49.353149,68.496613 49.652870,59.137165 49.951683,48.847115 
	C49.940880,36.339458 49.930981,24.762398 49.921085,13.185339 
	C49.951874,10.736062 49.982666,8.286785 50.021927,5.379161 
	C55.253788,12.043032 61.571205,18.614479 65.487938,26.394516 
	C75.737488,46.753811 71.819199,67.605064 55.418045,83.132759 
	C54.971367,83.555649 54.289303,83.729912 53.362911,84.065147 
	C51.853149,82.189789 50.697483,80.269409 49.297619,78.102539 
z"/>
<path fill="#4A9D4B" opacity="1.000000" stroke="none" 
	d="
M49.825157,3.756113 
	C49.605419,3.832902 49.419273,3.645832 49.136505,3.278893 
	C49.395931,3.035217 49.668884,3.166294 49.825157,3.756113 
z"/>
<path fill="#7DBC78" opacity="1.000000" stroke="none" 
	d="
M49.714039,13.521451 
	C49.930981,24.762398 49.940880,36.339458 49.937935,48.367218 
	C49.615673,44.911488 49.054958,41.005367 49.049995,37.098541 
	C49.040154,29.351755 49.336937,21.604578 49.714039,13.521451 
z"/>
</svg>